/* XPM */
static char *_e6a23e72bac4effad94a1daaf08d17cW97sOjZiN8a8U5Fd[] = {
/* columns rows colors chars-per-pixel */
"32 32 16 1 ",
"  c #4D381C",
". c #4D401F",
"X c #5E4522",
"o c #736244",
"O c #85755C",
"+ c #948465",
"@ c #9A8B6E",
"# c #A3926F",
"$ c #BA9961",
"% c #AB9974",
"& c #A39D81",
"* c #AEA682",
"= c #ABA589",
"- c #ADB591",
"; c #C7C5A7",
": c #E0DEBC",
/* pixels */
" XXXXXXXXXXXXXXXXXXXXXXXXXXXXXXX",
"       X       X       X       X",
" $$$$$$X $$$$$$X $$$$$$X $$$$$$X",
" $;;;;;X $;;;;;X $;;;;;X $;;;;;X",
" $;:;:;X $;:;:;X $;:;:;X $;:;:;X",
" $:;:;:X $:;:;:X $:;:;:X $:;:;:X",
" $;:;:;X $;:;:;X $;:;:;X $;:;:;X",
" $:;:;:X $:;:;:X $:;:;:X $:;:;:X",
" $;:;::X $;:;::X $;:;::X $;:;::X",
" $:::;:X $:::;:X $:::;:X $:::;:X",
" $:;:::X $:;:::X $:;:::X $:;:::X",
" $:::::X $:::::X $:::::X $:::::X",
" $;::::X $;::::X $;::::X $;::::X",
" $:::::X $:::::X $:::::X $:::::X",
" $:::::X $:::::X $:::::X $:::::X",
" XXXXXXX XXXXXXX XXXXXXX XXXXXXX",
"       X       X       X       X",
" +++##+X +++##+X +++##+X +++##+X",
" O@-=%#X O@-=%#X O@-=%#X O@-=%#X",
" OO@-&%X OO@-&%X OO@-&%X OO@-&%X",
" oOOOO%X oOOOO%X oOOOO%X oOOOO%X",
" %**%+%X %**%+%X %**%+%X %**%+%X",
" O@-@%@X O@-@%@X O@-@%@X O@-@%@X",
" O@@O*OX O@@O*OX O@@O*OX O@@O*OX",
" OOO*%*X OOO*%*X OOO*%*X OOO*%*X",
" %%%*O&X %%%*O&X %%%*O&X %%%*O&X",
" O%OO&-X O%OO&-X O%OO&-X O%OO&-X",
" +*OO@@X +*OO@@X +*OO@@X +*OO@@X",
" @@*%OOX @@*%OOX @@*%OOX @@*%OOX",
" O@@+%*X O@@+%*X O@@+%*X O@@+%*X",
"XXXXXXXXXXXXXXXXXXXXXXXXXXXXXXXX",
"  .X.   .XXXXX.   .X.   .XXXXX. "
};
