/* XPM */
static char *_81ead7e67c44dbceda12b45001071259EJF8Ceb7VBVihIS[] = {
/* columns rows colors chars-per-pixel */
"32 32 2 1 ",
"  c black",
". c white",
/* pixels */
"                                ",
"                ..              ",
"..              ..              ",
"..                              ",
"                          ..    ",
"                          ..    ",
"   ..               ...         ",
"   ..               ...         ",
"                    ...         ",
"         ..                     ",
"         ..                     ",
"                                ",
"                        ..      ",
"                        ..      ",
"                                ",
"                                ",
"                                ",
"                                ",
"   ...        ..                ",
"   ...        ..                ",
"   ...                          ",
"                                ",
"          ..       ..           ",
"          ..       ..           ",
"                            ..  ",
"                            ..  ",
"                      ...       ",
"                      ...       ",
"                      ...       ",
"                                ",
"            ..                  ",
"            ..                  "
};
