/* XPM */
static char *_18946f781ad4fd1cbe1037e1753320ffY3eNoUmer7qzgaY[] = {
/* columns rows colors chars-per-pixel */
"32 32 2 1 ",
"  c black",
". c white",
/* pixels */
"                                ",
"......    ......................",
".......  .......................",
".......  .......................",
"......   .......................",
".......  .......................",
"......   .......................",
"..... .  .......................",
"......   .......................",
"..... .  .......................",
"......   .......................",
"..... .  .......................",
".... .   .......................",
". . . .  ...................... ",
" . . .    ........ . . . . . . .",
"                                ",
"                                ",
"......................    ......",
".......................  .......",
".......................  .......",
"......................   .......",
".......................  .......",
"......................   .......",
"..................... .  .......",
"......................   .......",
"..................... .  .......",
"......................   .......",
"..................... .  .......",
".................... .   .......",
"............... . . . .  .......",
".. . . . . . . . . . .    ......",
"                                "
};
