/* XPM */
static char *c25f38fe5b604a27c6e14211b0a658beM7PXJh4LMAh4Odxy[] = {
/* columns rows colors chars-per-pixel */
"32 32 2 1 ",
"  c #A1B1E3",
". c #B7C8E4",
/* pixels */
"   ...........     ...........  ",
"    ...........     ..........  ",
"    ...........     ........... ",
"     ..........      .......... ",
"       .........       .........",
"         .......         .......",
".           .....           ....",
"..           .....           ...",
"...            ....            .",
"......          ......          ",
" ........        ........       ",
" .........       .........      ",
"  ..........      .........     ",
"  ...........     ..........    ",
"  ...........     ...........   ",
"   ...........     ...........  ",
"   ...........     ...........  ",
"    ...........     ..........  ",
"    ...........     ........... ",
"     ..........      .......... ",
"       .........       .........",
"         .......         .......",
".           .....           ....",
"..           .....           ...",
"...            ....            .",
"......          ......          ",
" ........        ........       ",
" .........       .........      ",
"  ..........      .........     ",
"  ...........     ..........    ",
"  ...........     ...........   ",
"   ...........     ...........  "
};
