/* XPM */
static char *d75637c43b6142f6c463cc9d953b353aRXFF8XEqL3TDl0KJ[] = {
/* columns rows colors chars-per-pixel */
"32 32 3 1 ",
"  c #5B6CE5",
". c white",
"X c #F5F4F8",
/* pixels */
"................................",
"................................",
"...                    .........",
"...                    .........",
"...                    .........",
"...                    .........",
"...    .........................",
"...    .........................",
"...    .........................",
"...    .........................",
"...    .........................",
"...    .........................",
"...    .........................",
"...    .........................",
"...    X........................",
"...              ...............",
"...              ...............",
"...              ...............",
"...              ...............",
"...    .........................",
"...    .........................",
"...    .........................",
"...    .........................",
"...    .........................",
"...    .........................",
"...    .........................",
"...    .......X.................",
"...                     ........",
"...                     ........",
"...                     ........",
"...                     ........",
"......XX........................"
};
