/* XPM */
static char *a0a5aadc4bdf41cf9a07f3b465a2a95bEn2E1j0wKrI5PqM8[] = {
/* columns rows colors chars-per-pixel */
"16 16 7 1 ",
"  c #646464",
". c #787676",
"X c #9A151E",
"o c #CA1924",
"O c #FF2736",
"+ c #888484",
"@ c gray57",
/* pixels */
"......++++++++..",
".  .+@O+....   .",
"++oO++...@oO++@@",
"..Xo ..  .+@@+..",
"++@@@+oo@@@@+  +",
"...XXOOoo...  ..",
"@@.++++@@@@@oOo@",
".  .+@@o+.XoOX@.",
".XooO+...  .....",
"+++XoO@+.oO+++++",
"...+....XXoO+. .",
".@@+  ++@@@+.   ",
"..XXoOo...  .+++",
".++XXo  oO.o ...",
"@@@....+Xo++++..",
"....  ...@@@...."
};
