/* XPM */
static char *f9a8d460c94b4194823ec6370aa9e35cK3cmeMErUPK2Cghx[] = {
/* columns rows colors chars-per-pixel */
"32 32 2 1 ",
"  c #77A1E6",
". c #8CBEEC",
/* pixels */
"...............  .............  ",
"............... ............... ",
"............... ..  .......  .. ",
"............... ..  .......  .. ",
"............... ............... ",
"............... ............... ",
"............... ............... ",
"............... ............... ",
"............... ............... ",
"............... ............... ",
"............... ............... ",
"..  .......  .. ............... ",
"..  .......  .. ............... ",
"............... ............... ",
" .............  ............... ",
"                ............... ",
" .............  ............... ",
"............... ............... ",
"..  .......  .. ............... ",
"..  .......  .. ............... ",
"............... ............... ",
"............... ............... ",
"............... ............... ",
"............... ............... ",
"............... ............... ",
"............... ............... ",
"............... ............... ",
"............... ..  .......  .. ",
"............... ..  .......  .. ",
"............... ............... ",
"...............  .............  ",
"...............                 "
};
