/* XPM */
static char *af3bf82a13a84fc0a6ee55e3b5e2a116GSqnAIBadnitRRuN[] = {
/* columns rows colors chars-per-pixel */
"16 16 15 1 ",
"  c #4D5A35",
". c #536138",
"X c #677B3F",
"o c #4E4C4C",
"O c #5B5959",
"+ c #6A7F43",
"@ c #637049",
"# c #606060",
"$ c #676666",
"% c gray45",
"& c #797979",
"* c #79895B",
"= c #838383",
"- c #888888",
"; c #9B9B9B",
/* pixels */
";o==X@=;;O&&@X=;",
"-O=&&@%==O=&@&&-",
"=oX&%%%%@OX@=&&&",
"=o$&&&%@ o&-===&",
"oooO$O oooO . Oo",
"==;o-+*-;-;; --=",
"-&=#+@&&&&%=.%&&",
"&&=#+ &&&&%=.%&&",
"&&-O X%&&&&%o@X&",
"%%%o$%&%%%&&O%%%",
"ooo oOOOOOoooooo",
"-=-;=@o----;=;O-",
"X%&%%Xo%%&%X&-O&",
"X%&&%Xo%&&%@&-O&",
"X%&&%Xo&&&@ &-O&",
"oOoooOoOO$ X@OoO"
};
