/* XPM */
static char *cae788586f9849109af2f56fa162dd194ErIDvsPUNIW8DBM[] = {
/* columns rows colors chars-per-pixel */
"32 32 10 1 ",
"  c white",
". c #805245",
"X c #AC9894",
"o c #FCFBFB",
"O c #E3DEDD",
"+ c #8C6860",
"@ c #BAABA8",
"# c #83584C",
"$ c #CDC2C0",
"% c #A18883",
/* pixels */
"                                ",
"                                ",
"                                ",
"     ...               ...      ",
"     ...X              ...      ",
"     ....              ...o     ",
"     ....O             ...o     ",
"     .....             ...      ",
"     .....             ...      ",
"     .....X            ...      ",
"     .......           ...      ",
"     .......           ...      ",
"     ...X...X          ...      ",
"     ... ....          ...      ",
"     ... X...X         ...      ",
"     ...  ....+        ...      ",
"     ...  X....O       #..      ",
"    o...   +....       ...      ",
"    o...    ....O      ...      ",
"     ...     ....      ...      ",
"     ...     ....+    O...      ",
"     ...o    O....X   O...      ",
"     ...      +...+   $...      ",
"     ...o     O....%  $...      ",
"     ...o      X....  @...      ",
"     ...o       ..... @...      ",
"     ...o        ....+@...      ",
"     ...o        X...#@...      ",
"     ...o         #...@...      ",
"     ...          X.......      ",
"     ...           .......      ",
"     ...           X......      "
};
