/* XPM */
static char *f020e35aa1cb44e79d33a49f69429f123g5YYfmnJrA5LwX7[] = {
/* columns rows colors chars-per-pixel */
"32 32 4 1 ",
"  c white",
". c #805245",
"X c #FEFEFE",
"o c #F9F8F7",
/* pixels */
"                                ",
"                                ",
"     XXX    XXXX   XXXo         ",
"    X..................         ",
"    X..................         ",
"     ...X      X                ",
"     ...                        ",
"    X...                        ",
"     ...o                       ",
"     ...                        ",
"     ...                        ",
"     ...   oooo                 ",
"     .................          ",
"     .................X         ",
"     .................X         ",
"     X             ...X         ",
"                   ...X         ",
"                   ...X         ",
"                   ...X         ",
"                   ...          ",
"                   ...          ",
"                   ...X         ",
"                   ...X         ",
"                   ...          ",
"    oXXoooXXoooX  o...          ",
"    ..................          ",
"    ..................          ",
"          XXXXX                 ",
"                                ",
"                                ",
"                                ",
"     Xoo                        "
};
