/* XPM */
static char *_7266a7a5afb447be513271d39e1ed9egxpilkMpD2mPcmGg[] = {
/* columns rows colors chars-per-pixel */
"32 32 19 1 ",
"  c white",
". c #DFE1F8",
"X c #5B6CE5",
"o c #C4C8F2",
"O c #B4B9F0",
"+ c #9BA2EC",
"@ c #F0F0FB",
"# c #6F7CE7",
"$ c #8C95EA",
"% c #5C6DE5",
"& c #ADB3EE",
"* c #6674E6",
"= c #6070E5",
"- c #6A78E6",
"; c #5F6FE5",
": c #6574E6",
"> c #C4C8F3",
", c #808BE8",
"< c #7783E7",
/* pixels */
"                         .XXX   ",
"                         oXXX   ",
" XXXO        O++@        oXXX.  ",
" XXX#        XXX$        .XXXo  ",
" XXXX       .XXX%         XXX&  ",
" XXXX       oXXXX         XXX&  ",
" XXXX       *XXXX         XXX&  ",
" XXXX#      XXXXX         XXX&  ",
" =XXX=     .XXXXX.        XXX&  ",
" +XXXX     oXXXXX$        XXX&  ",
"  XXXX+    *XXXXX-        XXX&  ",
"  XXXXX    XXXXXXX        XXXo  ",
"  %XXXX    XXXXXXX       $XXX.  ",
"  -XXXX    XXXXXXX.      -XXX   ",
"  $XXXX    XXXXXXX-      XXXX   ",
"  .XXXX#  .XXX%XXX;     .XXX+   ",
"   XXXX=  .XXX:XXX%     $XXX    ",
"   XXXXX  $XXX>XXXX.    -XXX    ",
"   .XXXX+ -XXX.XXXXo    XXX#    ",
"    XXXXX XXXX.XXXXX   +XXX+    ",
"    ;XXXX XXXX .XXXX   XXXX     ",
"    $XXXX XXXX  -XXX, .XXX+     ",
"    .XXXX$XXX<  .XXXX XXXX      ",
"     XXXXXXXX,   XXXX XXXX      ",
"     $XXXXXXXo   %XXX=XXX.      ",
"     .XXXXXXXo   -XXXXXXX       ",
"      XXXXXXX.   .XXXXXX-       ",
"      .XXXXX#     XXXXXX        ",
"       #XXX#      .XXXXX        ",
"        XXX+        XXXX        ",
"                    ...         ",
"                                "
};
