/* XPM */
static char *be2d74d61b0b4259c354b9744f092bbdfNhhBb09EwiL9xNU[] = {
/* columns rows colors chars-per-pixel */
"32 32 2 1 ",
"  c #E8E192",
". c #F8F0B7",
/* pixels */
".....    ....      ....    .....",
"....    ....        ....    ....",
"...    ....          ....    ...",
"..    ....     ..     ....    ..",
".    ....     ....     ....    .",
"    ....     ......     ....    ",
"   ....     ........     ....   ",
"  ....     ....  ....     ....  ",
" ....     ....    ....     .... ",
"....     ....      ....     ....",
"...     ....        ....     ...",
"..     ....    ..    ....     ..",
".     ....    ....    ....     .",
"     ....    ......    ....     ",
"    ....    ........    ....    ",
"   ....    ..........    ....   ",
"   ....    ..........    ....   ",
"    ....    ........    ....    ",
"     ....    ......    ....     ",
".     ....    ....    ....     .",
"..     ....    ..    ....     ..",
"...     ....        ....     ...",
"....     ....      ....     ....",
" ....     ....    ....     .... ",
"  ....     ....  ....     ....  ",
"   ....     ........     ....   ",
"    ....     ......     ....    ",
".    ....     ....     ....    .",
"..    ....     ..     ....    ..",
"...    ....          ....    ...",
"....    ....        ....    ....",
".....    ....      ....    ....."
};
